<mxfile host="app.diagrams.net" agent="Mozilla/5.0 (Windows NT 10.0; Win64; x64) AppleWebKit/537.36 (KHTML, like Gecko) Chrome/136.0.0.0 Safari/537.36" version="27.0.9">
  <diagram name="Page-1" id="6cXo1iM9PVL89vA9BAxK">
    <mxGraphModel dx="793" dy="423" grid="1" gridSize="10" guides="1" tooltips="1" connect="1" arrows="1" fold="1" page="1" pageScale="1" pageWidth="850" pageHeight="1100" math="0" shadow="0">
      <root>
        <mxCell id="0" />
        <mxCell id="1" parent="0" />
        <mxCell id="oWUIXewEyKs8q60U85j0-1" value="" style="rounded=1;whiteSpace=wrap;html=1;strokeWidth=1;fillColor=none;" parent="1" vertex="1">
          <mxGeometry x="245" y="100" width="360" height="650" as="geometry" />
        </mxCell>
        <mxCell id="oWUIXewEyKs8q60U85j0-2" value="Authentication" style="text;html=1;align=center;verticalAlign=middle;whiteSpace=wrap;rounded=0;" parent="1" vertex="1">
          <mxGeometry x="340" y="100" width="170" height="30" as="geometry" />
        </mxCell>
        <mxCell id="oWUIXewEyKs8q60U85j0-3" value="Login" style="ellipse;whiteSpace=wrap;html=1;" parent="1" vertex="1">
          <mxGeometry x="278" y="150" width="295" height="100" as="geometry" />
        </mxCell>
        <mxCell id="oWUIXewEyKs8q60U85j0-8" value="" style="edgeStyle=orthogonalEdgeStyle;rounded=0;orthogonalLoop=1;jettySize=auto;html=1;" parent="1" source="oWUIXewEyKs8q60U85j0-4" target="oWUIXewEyKs8q60U85j0-7" edge="1">
          <mxGeometry relative="1" as="geometry">
            <Array as="points">
              <mxPoint x="125" y="280" />
              <mxPoint x="95" y="280" />
            </Array>
          </mxGeometry>
        </mxCell>
        <mxCell id="oWUIXewEyKs8q60U85j0-13" value="" style="edgeStyle=orthogonalEdgeStyle;rounded=0;orthogonalLoop=1;jettySize=auto;html=1;entryX=0.5;entryY=0;entryDx=0;entryDy=0;entryPerimeter=0;" parent="1" source="oWUIXewEyKs8q60U85j0-4" target="oWUIXewEyKs8q60U85j0-11" edge="1">
          <mxGeometry relative="1" as="geometry">
            <Array as="points">
              <mxPoint x="125" y="280" />
              <mxPoint x="155" y="280" />
            </Array>
          </mxGeometry>
        </mxCell>
        <mxCell id="oWUIXewEyKs8q60U85j0-19" style="rounded=0;orthogonalLoop=1;jettySize=auto;html=1;entryX=0;entryY=0.5;entryDx=0;entryDy=0;exitX=1;exitY=0.3333333333333333;exitDx=0;exitDy=0;exitPerimeter=0;" parent="1" source="oWUIXewEyKs8q60U85j0-4" target="oWUIXewEyKs8q60U85j0-3" edge="1">
          <mxGeometry relative="1" as="geometry" />
        </mxCell>
        <mxCell id="oWUIXewEyKs8q60U85j0-21" style="rounded=0;orthogonalLoop=1;jettySize=auto;html=1;entryX=0;entryY=0.5;entryDx=0;entryDy=0;exitX=1;exitY=0.3333333333333333;exitDx=0;exitDy=0;exitPerimeter=0;" parent="1" source="oWUIXewEyKs8q60U85j0-4" target="oWUIXewEyKs8q60U85j0-14" edge="1">
          <mxGeometry relative="1" as="geometry" />
        </mxCell>
        <mxCell id="vmV0Vm-jRsaXPZqSd79U-2" style="rounded=0;orthogonalLoop=1;jettySize=auto;html=1;exitX=1;exitY=0.3333333333333333;exitDx=0;exitDy=0;exitPerimeter=0;entryX=0;entryY=0.5;entryDx=0;entryDy=0;" parent="1" source="oWUIXewEyKs8q60U85j0-4" target="vmV0Vm-jRsaXPZqSd79U-1" edge="1">
          <mxGeometry relative="1" as="geometry" />
        </mxCell>
        <mxCell id="oWUIXewEyKs8q60U85j0-4" value="User" style="shape=umlActor;verticalLabelPosition=bottom;verticalAlign=top;html=1;" parent="1" vertex="1">
          <mxGeometry x="110" y="140" width="30" height="60" as="geometry" />
        </mxCell>
        <mxCell id="oWUIXewEyKs8q60U85j0-7" value="Normal" style="shape=umlActor;verticalLabelPosition=bottom;verticalAlign=top;html=1;" parent="1" vertex="1">
          <mxGeometry x="80" y="350" width="30" height="60" as="geometry" />
        </mxCell>
        <mxCell id="oWUIXewEyKs8q60U85j0-24" style="rounded=0;orthogonalLoop=1;jettySize=auto;html=1;exitX=1;exitY=0.3333333333333333;exitDx=0;exitDy=0;exitPerimeter=0;entryX=0;entryY=0.5;entryDx=0;entryDy=0;" parent="1" source="oWUIXewEyKs8q60U85j0-11" target="oWUIXewEyKs8q60U85j0-15" edge="1">
          <mxGeometry relative="1" as="geometry" />
        </mxCell>
        <mxCell id="oWUIXewEyKs8q60U85j0-25" style="rounded=0;orthogonalLoop=1;jettySize=auto;html=1;exitX=1;exitY=0.3333333333333333;exitDx=0;exitDy=0;exitPerimeter=0;entryX=0;entryY=0.5;entryDx=0;entryDy=0;" parent="1" source="oWUIXewEyKs8q60U85j0-11" target="oWUIXewEyKs8q60U85j0-16" edge="1">
          <mxGeometry relative="1" as="geometry" />
        </mxCell>
        <mxCell id="oWUIXewEyKs8q60U85j0-11" value="Admin" style="shape=umlActor;verticalLabelPosition=bottom;verticalAlign=top;html=1;" parent="1" vertex="1">
          <mxGeometry x="140" y="350" width="30" height="60" as="geometry" />
        </mxCell>
        <mxCell id="oWUIXewEyKs8q60U85j0-14" value="Register" style="ellipse;whiteSpace=wrap;html=1;" parent="1" vertex="1">
          <mxGeometry x="278" y="270" width="295" height="100" as="geometry" />
        </mxCell>
        <mxCell id="oWUIXewEyKs8q60U85j0-26" style="rounded=0;orthogonalLoop=1;jettySize=auto;html=1;exitX=1;exitY=0.5;exitDx=0;exitDy=0;" parent="1" source="oWUIXewEyKs8q60U85j0-15" edge="1">
          <mxGeometry relative="1" as="geometry">
            <mxPoint x="750" y="320" as="targetPoint" />
          </mxGeometry>
        </mxCell>
        <mxCell id="oWUIXewEyKs8q60U85j0-15" value="Delete user" style="ellipse;whiteSpace=wrap;html=1;" parent="1" vertex="1">
          <mxGeometry x="278" y="510" width="295" height="100" as="geometry" />
        </mxCell>
        <mxCell id="oWUIXewEyKs8q60U85j0-16" value="List all users" style="ellipse;whiteSpace=wrap;html=1;" parent="1" vertex="1">
          <mxGeometry x="278" y="630" width="295" height="100" as="geometry" />
        </mxCell>
        <mxCell id="oWUIXewEyKs8q60U85j0-17" value="DB" style="shape=umlActor;verticalLabelPosition=bottom;verticalAlign=top;html=1;" parent="1" vertex="1">
          <mxGeometry x="750" y="300" width="30" height="60" as="geometry" />
        </mxCell>
        <mxCell id="oWUIXewEyKs8q60U85j0-18" style="rounded=0;orthogonalLoop=1;jettySize=auto;html=1;entryX=0;entryY=0.3333333333333333;entryDx=0;entryDy=0;entryPerimeter=0;" parent="1" source="oWUIXewEyKs8q60U85j0-14" target="oWUIXewEyKs8q60U85j0-17" edge="1">
          <mxGeometry relative="1" as="geometry" />
        </mxCell>
        <mxCell id="vmV0Vm-jRsaXPZqSd79U-3" style="rounded=0;orthogonalLoop=1;jettySize=auto;html=1;exitX=1;exitY=0.5;exitDx=0;exitDy=0;" parent="1" source="vmV0Vm-jRsaXPZqSd79U-1" edge="1">
          <mxGeometry relative="1" as="geometry">
            <mxPoint x="750" y="320" as="targetPoint" />
          </mxGeometry>
        </mxCell>
        <mxCell id="vmV0Vm-jRsaXPZqSd79U-1" value="Reset password" style="ellipse;whiteSpace=wrap;html=1;" parent="1" vertex="1">
          <mxGeometry x="278" y="390" width="295" height="100" as="geometry" />
        </mxCell>
        <mxCell id="vmV0Vm-jRsaXPZqSd79U-6" value="&lt;span style=&quot;background-color: light-dark(#ffffff, var(--ge-dark-color, #121212));&quot;&gt;&amp;lt;&amp;lt;extends&amp;gt;&amp;gt;&lt;/span&gt;" style="html=1;verticalAlign=bottom;labelBackgroundColor=none;endArrow=open;endFill=0;dashed=1;rounded=0;exitX=1;exitY=0;exitDx=0;exitDy=0;labelPosition=center;verticalLabelPosition=top;align=center;" parent="1" source="vmV0Vm-jRsaXPZqSd79U-1" target="oWUIXewEyKs8q60U85j0-3" edge="1">
          <mxGeometry x="-0.0179" y="10" width="160" relative="1" as="geometry">
            <mxPoint x="520" y="400" as="sourcePoint" />
            <mxPoint x="680" y="400" as="targetPoint" />
            <Array as="points">
              <mxPoint x="580" y="405" />
              <mxPoint x="580" y="290" />
              <mxPoint x="580" y="140" />
            </Array>
            <mxPoint as="offset" />
          </mxGeometry>
        </mxCell>
        <mxCell id="FYZOF0D5BTh3eeoslazf-1" value="AWS" style="shape=umlActor;verticalLabelPosition=bottom;verticalAlign=top;html=1;outlineConnect=0;" vertex="1" parent="1">
          <mxGeometry x="750" y="180" width="30" height="60" as="geometry" />
        </mxCell>
        <mxCell id="FYZOF0D5BTh3eeoslazf-2" style="rounded=0;orthogonalLoop=1;jettySize=auto;html=1;entryX=0;entryY=0.3333333333333333;entryDx=0;entryDy=0;entryPerimeter=0;exitX=1;exitY=0.5;exitDx=0;exitDy=0;" edge="1" parent="1" source="oWUIXewEyKs8q60U85j0-14" target="FYZOF0D5BTh3eeoslazf-1">
          <mxGeometry relative="1" as="geometry" />
        </mxCell>
        <mxCell id="FYZOF0D5BTh3eeoslazf-4" style="rounded=0;orthogonalLoop=1;jettySize=auto;html=1;entryX=0;entryY=0.3333333333333333;entryDx=0;entryDy=0;entryPerimeter=0;exitX=1;exitY=0.5;exitDx=0;exitDy=0;" edge="1" parent="1" source="vmV0Vm-jRsaXPZqSd79U-1" target="FYZOF0D5BTh3eeoslazf-1">
          <mxGeometry relative="1" as="geometry" />
        </mxCell>
      </root>
    </mxGraphModel>
  </diagram>
</mxfile>
